<?xml version="1.0" encoding="utf-8"?>
<!-- Generator: Adobe Illustrator 20.1.0, SVG Export Plug-In . SVG Version: 6.00 Build 0)  -->
<svg version="1.1" id="Слой_1" xmlns="http://www.w3.org/2000/svg" xmlns:xlink="http://www.w3.org/1999/xlink" x="0px" y="0px"
	 viewBox="0 0 65.6 15.5" style="enable-background:new 0 0 65.6 15.5;" xml:space="preserve">
<style type="text/css">
	.st0{fill:none;}
	.st1{fill:#F9F9F9;}
	.st2{font-family:'SFProDisplay-Light';}
	.st3{font-size:10px;}
	.st4{fill:#FFFFFF;}
</style>
<rect class="st0" width="65.6" height="15.5"/>
<text transform="matrix(1 0 0 1 4.4839 11.3077)" class="st1 st2 st3">NICK</text>
<text transform="matrix(1 0 0 1 42.8587 11.3077)" class="st1 st2 st3">DEV</text>
<path class="st4" d="M35.9,5C35.9,5,35.8,5,35.9,5c0.4,0.5,0.8,1.4,0.8,2c0,0.6-0.5,1.8-1.4,1.8c-0.7,0-0.9-0.8-0.9-1.2
	c0-0.6,0.3-1.4,1-1.7L35,5.4C34.5,5.5,34.3,6,34.3,6c0-0.5,0.4-0.9,0.4-0.9L34,4.3l-0.1-0.1l-0.1,0.1L33.2,5c0,0,0.4,0.4,0.4,0.9
	c0,0-0.3-0.4-0.6-0.6l-0.4,0.5c0.6,0.3,1,1,1,1.7c0,0.4-0.1,1.2-0.9,1.2c-0.9,0-1.4-1.2-1.4-1.8s0.4-1.6,0.8-2c0,0,0-0.1,0,0
	c-1.1,0.6-1.8,1.9-1.8,3.2c0,2.1,1.7,3.8,3.8,3.8c2.1,0,3.8-1.7,3.8-3.8C37.7,6.8,37,5.7,35.9,5z"/>
</svg>
