<?xml version="1.0" standalone="no"?>
<!DOCTYPE svg PUBLIC "-//W3C//DTD SVG 20010904//EN"
 "http://www.w3.org/TR/2001/REC-SVG-20010904/DTD/svg10.dtd">
<svg version="1.0" xmlns="http://www.w3.org/2000/svg"
 width="700.000000pt" height="700.000000pt" viewBox="0 0 700.000000 700.000000"
 preserveAspectRatio="xMidYMid meet">
<metadata>
Created by potrace 1.11, written by Peter Selinger 2001-2013
</metadata>
<g transform="translate(0.000000,700.000000) scale(0.100000,-0.100000)"
fill="#000000" stroke="none">
<path d="M2940 6993 c-413 -39 -730 -128 -1064 -298 -381 -195 -736 -489
-1021 -845 -95 -120 -259 -371 -344 -527 -476 -882 -580 -1999 -276 -2979 73
-232 109 -324 215 -539 138 -281 247 -455 418 -670 126 -157 377 -407 527
-523 571 -442 1255 -657 1920 -601 194 16 180 16 391 1 454 -33 922 58 1349
262 947 452 1635 1422 1824 2571 40 243 46 325 46 655 0 330 -6 412 -46 655
-87 531 -284 1036 -572 1465 -384 574 -909 997 -1507 1213 -352 127 -733 181
-1094 155 -200 -14 -201 -14 -375 1 -125 10 -308 12 -391 4z m1227 -705 c15
-7 38 -29 51 -48 43 -63 12 -153 -60 -177 -49 -16 -310 1 -348 24 -96 56 -68
209 41 225 51 7 289 -11 316 -24z m-959 -128 c61 -38 74 -123 28 -183 -13 -17
-194 -103 -283 -134 -38 -14 -45 -13 -85 5 -81 35 -100 127 -40 193 33 36 262
138 312 138 19 1 50 -8 68 -19z m1732 -118 c188 -103 220 -134 220 -213 0 -33
-6 -47 -34 -75 -29 -29 -41 -34 -82 -34 -41 0 -64 9 -146 58 -53 31 -110 65
-127 74 -37 21 -71 73 -71 111 0 56 45 109 101 119 38 7 69 -2 139 -40z
m-2560 -417 c37 -19 60 -62 60 -114 0 -36 -9 -50 -107 -160 -119 -134 -147
-152 -212 -132 -60 17 -86 53 -86 115 0 61 20 90 155 229 71 72 78 77 118 77
24 0 56 -7 72 -15z m3276 -180 c26 -17 72 -72 148 -179 44 -61 56 -86 56 -115
0 -48 -18 -81 -59 -108 -73 -50 -122 -24 -230 119 -98 131 -101 137 -101 187
0 31 7 49 30 75 42 48 103 56 156 21z m-1706 -74 c41 -29 50 -58 50 -171 l0
-106 63 -13 c221 -46 517 -188 549 -264 12 -30 13 -25 16 76 l3 107 35 35 c30
31 41 35 85 35 44 0 55 -4 84 -33 24 -24 35 -46 40 -78 3 -24 5 -219 3 -434
-3 -389 -3 -390 -26 -422 -49 -69 -171 -64 -208 9 -10 20 -14 67 -14 175 l0
148 -102 101 c-113 111 -156 146 -237 194 -68 39 -203 96 -253 105 l-38 7 0
-556 0 -555 43 -11 c429 -110 657 -213 810 -365 113 -113 167 -236 175 -400
17 -364 -173 -663 -508 -798 -132 -53 -233 -73 -452 -93 l-68 -6 0 -90 c0
-107 -16 -149 -65 -172 -41 -20 -78 -20 -119 -1 -51 24 -60 48 -64 172 l-4
112 -72 11 c-216 35 -329 79 -483 187 -34 24 -64 43 -67 43 -3 0 -6 -43 -6
-95 0 -113 -12 -144 -66 -170 -67 -32 -148 -1 -171 66 -15 43 -18 796 -3 850
13 48 50 79 99 86 50 7 95 -11 121 -47 18 -25 20 -45 20 -188 l0 -160 74 -69
c110 -102 270 -185 466 -239 47 -13 86 -24 88 -24 1 0 1 269 0 597 l-3 597
-135 41 c-343 103 -520 193 -651 331 -132 140 -182 300 -158 512 21 194 83
326 214 457 147 147 348 224 632 242 l101 6 4 103 c2 85 7 107 24 131 39 52
119 63 174 24z m-2135 -555 c41 -17 75 -68 75 -112 0 -29 -53 -179 -100 -281
-25 -54 -67 -77 -129 -70 -36 4 -52 12 -72 37 -34 41 -39 65 -23 126 20 78 92
245 116 271 18 20 59 38 91 42 4 1 23 -5 42 -13z m4327 -237 c44 -32 125 -279
115 -352 -11 -83 -101 -129 -177 -90 -43 22 -49 35 -100 204 -43 143 -44 169
-8 215 43 54 112 64 170 23z m-4538 -736 c43 -31 48 -60 45 -226 -4 -150 -5
-154 -32 -190 -51 -67 -142 -68 -193 -2 l-26 35 4 160 c3 141 6 163 24 187 45
61 123 77 178 36z m4675 -229 c65 -26 74 -54 69 -229 -4 -162 -14 -197 -62
-229 -35 -22 -101 -21 -136 4 -46 33 -53 64 -49 228 4 164 11 186 72 222 39
24 55 25 106 4z m-4581 -767 c12 -12 30 -46 38 -77 9 -30 27 -90 40 -133 29
-94 30 -142 5 -181 -60 -91 -179 -70 -220 39 -74 196 -86 302 -40 351 44 47
127 47 177 1z m4415 -196 c36 -14 74 -59 81 -96 5 -23 -3 -59 -25 -121 -76
-216 -110 -260 -199 -251 -34 4 -51 12 -72 36 -52 58 -51 75 23 266 46 121 59
141 104 161 36 16 56 17 88 5z m-4048 -683 c22 -10 97 -102 188 -232 63 -91 8
-196 -104 -196 -38 0 -48 5 -88 48 -25 26 -75 88 -109 137 -63 88 -64 91 -60
144 4 46 10 59 37 83 35 31 89 38 136 16z m3595 -193 c37 -19 60 -62 60 -114
0 -45 -38 -99 -154 -218 -54 -55 -80 -73 -108 -78 -80 -15 -158 61 -144 140 7
37 172 235 223 267 34 22 84 23 123 3z m-2889 -508 c129 -69 226 -130 246
-154 17 -20 23 -41 23 -77 0 -41 -5 -53 -34 -82 -29 -29 -41 -34 -81 -34 -40
0 -66 10 -158 63 -133 75 -173 110 -182 159 -10 51 19 108 65 130 47 23 69 22
121 -5z m2113 -111 c81 -34 103 -128 44 -191 -34 -36 -227 -128 -296 -141 -68
-13 -142 47 -142 114 0 58 32 100 98 129 31 14 95 43 142 64 95 43 106 45 154
25z m-1054 -222 c48 -3 96 -13 111 -21 89 -52 73 -195 -24 -221 -18 -4 -96 -5
-175 0 -166 8 -199 21 -226 88 -40 100 33 174 164 165 36 -2 103 -7 150 -11z"/>
<path d="M3590 4850 c-247 -30 -416 -136 -502 -317 -56 -117 -56 -264 -1 -365
14 -26 54 -75 87 -109 91 -91 214 -147 554 -253 l22 -7 0 530 0 531 -47 -1
c-27 -1 -77 -5 -113 -9z"/>
<path d="M4000 2881 l0 -569 78 5 c114 7 267 40 350 75 233 97 365 298 350
532 -7 101 -42 172 -126 254 -77 74 -201 139 -377 196 -111 35 -253 76 -267
76 -5 0 -8 -256 -8 -569z"/>
</g>
</svg>
