<svg version="1" xmlns="http://www.w3.org/2000/svg" width="933.333" height="933.333" viewBox="0 0 700.000000 700.000000"><path d="M305.7 49.6c-.1.2-26.1.6-57.7 1s-61.7.7-66.7.8c-5.1 0-9.3.4-9.3.8 0 .5-5.3.8-11.8.8-12.9 0-19.6 1.3-28.8 5.7-7.4 3.4-16.8 12.7-44.9 43.7-4.4 4.9-8.5 9.4-9 10-.6.6-6 6.5-12 13.1s-13.5 14.7-16.6 18c-3.1 3.3-7.1 7.6-8.9 9.5-5 5.4-26.2 28.1-29 31-10.1 10.4-12.2 15.4-9.7 22.6.7 2.3 15.7 24.8 33.2 50 27 39 37 52.9 51 71.3 2.5 3.3 22 27.5 39.1 48.6 35 43.1 56.5 72.3 89.9 121.5 6.5 9.6 13.8 20.3 16.2 23.7 4.2 6 20.3 32.1 20.3 32.9 0 .9 11.5 18.2 15.8 23.9 7.4 9.7 22.7 27 36.7 41.4 28 28.9 30.1 30.6 38.2 30.4 2.4 0 5.6-1 7.6-2.2 4.2-2.5 13.8-13.3 30.3-33.7 14.2-17.6 27.2-33.4 30.3-36.9 2-2.3 6.3-7.2 9.6-11 3.3-3.7 6.5-7.3 7-7.9.6-.6 3.9-4.5 7.5-8.6s6.8-7.7 7.1-8c.3-.3 8.6-10 18.4-21.5 9.8-11.6 19.7-23.3 22-26 2.4-2.8 7.5-8.8 11.5-13.5 4-4.7 9.1-10.8 11.5-13.5 7.3-8.5 11.8-13.9 16.5-19.5 2.5-2.9 5-5.8 5.5-6.4 1.4-1.5 44.4-53.1 52.1-62.6 3.3-4.1 17.5-22.4 31.5-40.5 23.1-29.9 43-55.6 46.2-59.5 6.1-7.5 22.7-32.6 31.6-47.7 10.5-17.9 11.4-20.4 11.5-29.8 0-11.8-1.9-14.9-28.2-44.9-4-4.6-19-25.4-40.1-55.6-20.2-28.8-26.4-36.4-34.5-41.7-10.7-7.1-14.1-7.8-34.1-7.5-61.9.9-87.5.5-107-1.5-5.5-.5-149.3-1.2-149.8-.7zm242.8 17c8.8.4 18 .8 20.5 1 2.5.1 6 .2 7.8.3l3.3.1-5.1 9.8c-5.8 11.4-22.1 36.1-35.2 53.6-8.1 10.7-11 14.5-19.3 24.5-10.1 12.3-25.9 29.4-38.4 41.8-8.1 7.9-9.1 7.6-26.6-7.8-1.6-1.4-5.7-5-9-7.9-8-7-21-20.3-26-26.5-2.2-2.7-4.6-5.6-5.4-6.4-.7-.8-10.3-12.7-21.3-26.5-37.4-46.8-41.9-52.8-41.5-54 .4-1.1 23.6-1.2 119.7-.6 19.9.1 30-.3 36.5-1.3 5-.8 12.4-1.3 16.5-1.1 4.1.2 14.7.6 23.5 1zm-222.1 8.1c-3.2 3.7-9 10.4-12.9 14.8-3.8 4.4-9.2 10.7-12 13.9-2.7 3.3-5.4 6.4-6 7-.5.6-5.3 6.1-10.5 12.1-5.2 6.1-10.7 12.3-12.1 14-1.5 1.6-7.3 8.4-13 15.1-5.7 6.6-16.7 19.3-24.4 28.3l-14 16.2-3.2-3.6c-13.3-15.3-40.2-58.2-60-95.5-2.2-4.1-6.1-11.4-8.7-16.3-2.5-4.8-4.5-8.7-4.4-8.8.7-.2 20.3-.7 48.3-1.3 68.6-1.3 93-1.8 93.2-2 .1 0 10.4-.2 22.9-.4l22.7-.3-5.9 6.8zm29.2 17.4c16.4 24.1 45 62.8 49.4 66.9.3.3 3.9 4.3 8 8.9 8.6 9.7 23.9 25.2 32.3 32.7 3.1 2.9 5.7 5.4 5.7 5.7 0 .3-2.4.3-5.2.2-2.9-.2-13.8-.6-24.3-1-10.4-.3-22.6-.8-27-1-4.4-.2-15.6-.7-25-1-9.3-.3-21-.8-26-1-4.9-.2-16.4-.7-25.5-1-9.1-.3-21-.8-26.5-1-5.5-.2-17.4-.7-26.5-1.1-9.1-.4-18.9-.7-21.7-.8-2.9 0-5.3-.4-5.3-.7 0-.7 8.6-11 27.3-32.9 5.5-6.3 10.6-12.4 11.6-13.5 4.3-5.3 33.8-40.1 35.6-42 1.1-1.3 8.3-9.7 16-18.8 10-12 14.3-16.3 15.1-15.6.7.5 6.1 8.2 12 17zm-208.5 8.2c5.6 11 11.4 22.2 13 24.9 1.6 2.7 2.9 5.1 2.9 5.4 0 1.1 16.1 27 28.7 46.1 7.3 11.1 13.3 20.5 13.3 20.8 0 .3-39 .5-86.6.5H31.9l5.3-6.3c2.9-3.4 5.5-6.4 5.8-6.7.3-.3 2.8-3.2 5.5-6.5 2.8-3.3 6-7.1 7.2-8.5 1.2-1.4 10.3-12.2 20.3-24s19.6-23.1 21.2-25c1.6-1.9 10.7-12.6 20.1-23.8 14.9-17.6 17.3-20.1 18.4-18.6.6.9 5.8 10.7 11.4 21.7zm448-16.1c1.9 2.9 3.9 6 4.4 7 2.7 4.9 15.3 24.5 28.1 43.8 15.4 23.3 30.2 42.4 43.5 56.3 9.3 9.8 9.9 10.7 7.2 10.7-1 0-4.9.5-8.8 1-9.9 1.3-13.9 1.7-23 2.5-4.4.4-9.1.9-10.5 1-18.2 2.3-85.3 2.3-123-.1-3-.1-8.3-.4-11.7-.5-3.5-.1-6.3-.5-6.3-.9s1.4-2.2 3.2-4.1c19.1-20.5 22.7-24.5 33.4-37.4 19.6-23.5 44.4-58.4 54.9-77.3 2.2-3.9 4.3-7.2 4.6-7.2.4 0 2.2 2.3 4 5.2zM60.5 211.4c11.6.4 27.3.9 35 1.1 7.7.3 21.4.7 30.5 1 32.5.8 61.6 1.7 69 2 4.1.2 10 .3 13.2.4 5.4.1 5.6.2 6.8 3.3 11.9 32.8 28.9 85.8 40.9 127.3 4.5 15.4 8.8 30.2 9.6 33 .8 2.7 3.1 10.8 5.1 18 1.9 7.1 6.4 23.3 9.9 36 3.5 12.6 10.4 38.1 15.5 56.5 9.9 36 23.1 82.3 30.4 106.5 3.3 11 4.2 15.2 3.4 16.2-1.6 1.9-3.4 1.6-5.1-.9-.8-1.3-2.3-3.2-3.4-4.3-1.9-2.1-14.3-16.3-17.8-20.4-1.1-1.4-3.4-4.1-5.1-6-12.1-14.1-27.3-35.8-48.8-69.8-14.5-23-14.7-23.6-9.4-34.6 1.5-3.1 2.8-5.9 2.8-6.2 0-.2 2.3-5.2 5.1-11.1 4.3-9.2 4.8-10.9 3.6-12.1-1.7-1.7-1.2-2.4-12.6 17.9-4.6 8.1-8.7 14.5-9.2 14.3-.4-.3-4.2-6-8.4-12.6-7-11.1-7.6-12.4-7-15.7.4-2.1 1.5-5.1 2.4-6.7 2.4-4 12.5-23.1 17.3-32.6 3.9-7.8 4.5-9.9 2.9-9.9-1 0-3.1 3.1-17.6 26-5.4 8.5-10.3 16.1-11 16.8-.9 1-2.7-.7-8.7-7.9l-7.5-9.2 7.2-12.1c8.2-13.9 15.2-27.3 18.8-36.3 2.2-5.4 2.3-6.2.9-6.8-.8-.3-1.9-.2-2.3.2-.4.4-7.1 11.4-14.9 24.3-7.8 12.9-14.3 23.6-14.5 23.8-.1.2-3.3-4.2-7-9.7-6-8.8-6.7-10.4-6.1-13.2.3-1.8 5.2-10.6 10.7-19.6 12.2-19.8 17-30 14.9-31.4-1.1-.6-1.8-.4-2.5.7-.5.9-2.8 4.1-5.1 7.2-2.2 3.1-8.4 12-13.8 19.7-13 18.5-11.9 17.6-15.4 13.7-1.6-1.8-4.5-4.9-6.4-7-6.6-7.2-6.7-8.7-1.3-18.2 3.7-6.3 10.4-18.8 18.2-33.9 3.7-7.2 5.1-10.7 4.4-11.4-.6-.6-1.2-.9-1.4-.6-.9 1.1-8.4 13.2-18.2 28.9-5.9 9.6-11.5 18.3-12.5 19.3-1.5 1.7-1.9 1.4-6.4-5.1l-4.7-6.9 10.8-14.9c18.1-24.8 31.8-48.3 29.5-50.6-.9-.9-4.1 2.8-10.2 11.9-7.5 11-35.5 49.3-36.1 49.3-.6 0-10-11.1-13.7-16.1-1.1-1.5.6-4.9 11.9-24.6 7.2-12.5 14.3-24.8 15.7-27.3 1.4-2.5 3.4-5.9 4.4-7.5 2.2-3.6 2.3-5.1.4-5.8-1-.4-2.9 1.7-5.8 6.4-18.9 30.6-32 50.9-32.8 50.9-.4 0-1.6-1.2-2.6-2.8-1.5-2.2-24.5-33.6-39.4-53.7-9.1-12.2-35.9-48.5-39.3-53.1l-3.7-5.2 7.7.3c4.3.2 17.2.6 28.8.9zm271.5 7.9c1.9.3 9.4.8 16.5 1.1 52.9 2.1 63.3 2.5 84 2.6 15.7.1 33.7-.7 36.4-1.6.9-.3 1.1.1.6 1.3-.4 1-2.2 5.8-4 10.8-1.8 4.9-6.9 18.9-11.5 31-12.3 33.2-39 105.3-41.1 111.5-1.1 3-2.6 7.1-3.4 9-2.2 5.4-35.3 98-47.1 132-3.6 10.2-7.3 20.7-8.3 23.5-4.3 11.3-14.4 40.2-14.8 42.2-.3 1.3-.8 2.3-1.2 2.3-.8 0-22.7-66.7-26.7-81-1.4-5.2-5-19.2-8-31-6.8-26.4-9.4-36.3-14.6-55-2.2-8-4.4-15.9-4.8-17.5-.8-3.4-5.9-20.9-9.5-33-1.3-4.4-5.2-17.2-8.5-28.5-13.9-46.4-24.8-80-35.9-111.2-1.7-4.7-3.1-8.9-3.1-9.3 0-.8 100 0 105 .8zm226 1.9c33.8 0 73.8-.2 88.8-.6 21.9-.5 27.2-.4 26.6.6-4.9 8.3-35.1 49.4-52.7 71.8-19.6 24.9-62.4 77.9-63.7 79-.4.3-8.3 9.7-17.6 21s-17.9 21.6-19.1 23c-1.1 1.4-5 5.9-8.4 10-3.5 4.1-6.8 8-7.4 8.6-.5.7-1.7 2-2.5 3-1.3 1.6-20.3 24.1-27.4 32.4-1.2 1.4-7.1 8.3-13.1 15.5-23.1 27.4-43.9 51.7-46.1 53.9-1.5 1.6-9.9 11-16.9 19-3.3 3.8-6.5 7.4-7 8-.6.6-4.4 5.1-8.5 10.1-4.1 4.9-7.7 9.2-8 9.5-.3.3-3.2 3.9-6.5 8s-6.2 7.7-6.5 8c-.3.3-3.1 3.6-6.2 7.5-3.1 3.8-6.8 8.1-8.2 9.4l-2.6 2.4v-5.2c0-5.2 2.3-12.4 26.5-82.1 2.4-6.9 5.3-15.4 6.5-19 3.7-10.8 7.5-21.6 14-40 3.4-9.6 6.6-18.6 7-20 8.6-26.3 79.2-220.6 83.1-228.7 2.3-4.7 5.4-6.3 10.9-5.6 1.9.3 31.2.5 65 .5z"/><path d="M114.9 140.9c-6.4 7.7-10.8 13.9-13.7 19.8-2 3.8-2 4.2-.4 4.8 1.1.4 2.2 0 3-1.2 1.3-1.7 16.9-25.4 18.5-27.9.4-.7.1-1.4-.6-1.7-.7-.3-3.7 2.4-6.8 6.2zM139.5 141c-7.6 5-18.9 21.2-22.3 32-1.4 4.3-2.4 10-1.8 10 .6 0 15.2-20.9 19.4-27.9 4.2-6.9 8.4-15.2 8-15.7-.2-.2-1.7.5-3.3 1.6zM312.4 286.8c-11.6 11.4-23.5 34.1-23.4 44.6.1 3 .1 3 1.6 1.1.8-1.1 7.2-12.1 14.1-24.3 12.2-21.9 14.4-28 7.7-21.4zM313 331.7c-4.7 8-9.6 16.4-10.8 18.7-1.3 2.2-3 5.1-3.8 6.4-1.7 2.5-1.1 4.2 1.4 4.2 3.4 0 18.1-22.5 22.8-34.8 2.9-7.5 2.8-6.9.6-8.1-1.5-.8-2.9 1-10.2 13.6zM312.5 367.6c-9.2 10.6-17.1 25.7-14.3 27.5.7.5 1.5.9 1.8.9.6 0 17.4-28 17.8-29.9.9-3.3-1.6-2.6-5.3 1.5z"/></svg>