<?xml version="1.0" encoding="utf-8"?>
<!-- Generator: Adobe Illustrator 20.1.0, SVG Export Plug-In . SVG Version: 6.00 Build 0)  -->
<svg version="1.1" id="Capa_1" xmlns="http://www.w3.org/2000/svg" xmlns:xlink="http://www.w3.org/1999/xlink" x="0px" y="0px"
	 viewBox="0 0 1771.6 489.9" style="enable-background:new 0 0 1771.6 489.9;" xml:space="preserve">
<style type="text/css">
	.st0{fill:#FFFFFF;}
	.st1{fill:#808094;}
	.st2{font-family:'Arial-Black';}
	.st3{font-size:247px;}
	.st4{font-size:246px;}
</style>
<g>
	<g>
		<path class="st0" d="M512,197.4V139h-24V77.7L419,0l-69,77.7V139h-25V77.7L256,0l-69,77.7V139h-25V77.7L93,0L24,77.7V139H0v58.4
			h24v145.3H0v58.4h24v88.8h138v-88.8h25v88.8h138v-88.8h25v88.8h138v-88.8h24v-58.4h-24V197.4H512z M365,83.4l54-60.8l54,60.8V139
			H365V83.4z M202,83.4l54-60.8l54,60.8V139H202V83.4z M39,83.4l54-60.8l54,60.8V139H39V83.4z M39,474.9v-73.8H147v73.8H39z
			 M310,474.9H202v-73.8H310V474.9z M473,474.9H365v-73.8H473V474.9z M497,357.7v28.4h-9H350h-25H187h-25H24h-9v-28.4h9h138h25h138
			h25h138H497z M39,342.7V197.4H147v145.3H39z M162,342.7V197.4h25v145.3H162z M202,342.7V197.4H310v145.3H202z M325,342.7V197.4h25
			v145.3H325z M365,342.7V197.4H473v145.3H365z M350,182.4h-25H187h-25H24h-9V154h9h138h25h138h25h138h9v28.4h-9H350z"/>
	</g>
</g>
<g>
	<g>
		<rect x="85.5" y="160.7" class="st0" width="15" height="15"/>
	</g>
</g>
<g>
	<g>
		<rect x="85.5" y="364.4" class="st0" width="15" height="15"/>
	</g>
</g>
<g>
	<g>
		<rect x="248.5" y="160.7" class="st0" width="15" height="15"/>
	</g>
</g>
<g>
	<g>
		<rect x="248.5" y="364.4" class="st0" width="15" height="15"/>
	</g>
</g>
<g>
	<g>
		<rect x="411.5" y="160.7" class="st0" width="15" height="15"/>
	</g>
</g>
<g>
	<g>
		<rect x="411.5" y="364.4" class="st0" width="15" height="15"/>
	</g>
</g>
<g>
	<g>
		<polygon class="st0" points="438.4,53.8 427.1,63.8 451.8,91.6 451.8,107.7 466.8,107.7 466.8,85.9 		"/>
	</g>
</g>
<g>
	<g>
		<polygon class="st0" points="274.3,53.8 263.1,63.8 287.7,91.6 287.7,107.7 302.7,107.7 302.7,85.9 		"/>
	</g>
</g>
<g>
	<g>
		<polygon class="st0" points="112.2,53.8 101,63.8 125.6,91.6 125.6,107.7 140.6,107.7 140.6,85.9 		"/>
	</g>
</g>
<g>
	<g>
		<polygon class="st0" points="58.8,455.7 58.8,426.5 43.8,426.5 43.8,470.7 68.1,470.7 68.1,455.7 		"/>
	</g>
</g>
<g>
	<g>
		<polygon class="st0" points="222.3,455.7 222.3,426.5 207.3,426.5 207.3,470.7 231.6,470.7 231.6,455.7 		"/>
	</g>
</g>
<g>
	<g>
		<polygon class="st0" points="384.9,455.7 384.9,426.5 369.8,426.5 369.8,470.7 394.1,470.7 394.1,455.7 		"/>
	</g>
</g>
<text transform="matrix(1 0 0 1 566.0039 220.005)" class="st1 st2 st3">ЗАБОРЫ</text>
<text transform="matrix(1 0 0 1 813.1575 459.9867)" class="st0 st2 st4">сочи</text>
</svg>
