<?xml version="1.0" encoding="utf-8"?>
<!-- Generator: Adobe Illustrator 20.1.0, SVG Export Plug-In . SVG Version: 6.00 Build 0)  -->
<svg version="1.1" id="Слой_1" xmlns="http://www.w3.org/2000/svg" xmlns:xlink="http://www.w3.org/1999/xlink" x="0px" y="0px"
	 viewBox="0 0 32 32" style="enable-background:new 0 0 32 32;" xml:space="preserve">
<style type="text/css">
	.st0{fill:url(#SVGID_1_);}
</style>
<linearGradient id="SVGID_1_" gradientUnits="userSpaceOnUse" x1="5.8848" y1="5.8786" x2="26.1168" y2="26.1106">
	<stop  offset="0" style="stop-color:#26A69A"/>
	<stop  offset="0.3233" style="stop-color:#488DA3"/>
	<stop  offset="0.6744" style="stop-color:#8363B2"/>
	<stop  offset="0.9995" style="stop-color:#AB48BC"/>
</linearGradient>
<path class="st0" d="M8.2,4.7C7.6,4.8,6.9,5.1,6.5,5.4C6.1,5.6,5.7,6,5.5,6.3c-0.3,0.3-0.6,1-0.7,1.5L4.7,8.1v15.7l0.1,0.4
	c0.1,0.5,0.4,1.1,0.7,1.5c0.5,0.6,1.2,1.2,2,1.4c0.6,0.2,0.3,0.2,8.5,0.2c8.2,0,7.9,0,8.5-0.2c0.8-0.2,1.5-0.8,2-1.4
	c0.3-0.3,0.6-1,0.7-1.5l0.1-0.4V8.1l-0.1-0.4c-0.1-0.5-0.4-1.1-0.7-1.5c-0.2-0.3-0.6-0.7-1-0.9c-0.3-0.2-0.9-0.5-1.3-0.6l-0.4-0.1
	l-7.7,0C11.9,4.7,8.3,4.7,8.2,4.7L8.2,4.7z M18.7,8.9c1.2,0.2,2,0.6,2.5,1.2c0.2,0.3,0.5,0.8,0.6,1.2c0.1,0.3,0.1,0.4,0.1,1.1
	c0,0.7,0,0.8-0.1,1.1c-0.2,0.8-0.7,1.4-1.5,1.9L20,15.5l0.2,0.1c0.3,0.1,0.8,0.4,1.1,0.6c0.6,0.5,1.1,1.3,1.3,2.2
	c0.1,0.5,0.1,1.4,0,1.8c-0.4,1.6-1.6,2.8-3.5,3.1c-0.7,0.1-0.9,0.2-4.8,0.2h-3.8V8.8l4,0C17.9,8.8,18.4,8.8,18.7,8.9z M13.7,13v1.7
	l1.8,0c1.7,0,1.8,0,2.1-0.1c0.9-0.2,1.2-0.7,1.2-1.6c0-0.7-0.2-1.1-0.8-1.4c-0.5-0.2-1-0.3-3-0.3h-1.4C13.7,11.3,13.7,13,13.7,13z
	 M13.7,18.9v2l2,0c2.2,0,2.3,0,2.9-0.3c0.6-0.3,0.9-0.8,0.9-1.6c0-1.1-0.4-1.7-1.4-1.9c-0.3-0.1-0.3-0.1-2.3-0.1l-2,0L13.7,18.9
	L13.7,18.9z"/>
</svg>
