<?xml version="1.0" encoding="utf-8"?>
<!-- Generator: Adobe Illustrator 20.1.0, SVG Export Plug-In . SVG Version: 6.00 Build 0)  -->
<svg version="1.1" id="Слой_1" xmlns="http://www.w3.org/2000/svg" xmlns:xlink="http://www.w3.org/1999/xlink" x="0px" y="0px"
	 viewBox="0 0 32 32" style="enable-background:new 0 0 32 32;" xml:space="preserve">
<style type="text/css">
	.st0{fill:url(#SVGID_1_);}
</style>
<linearGradient id="SVGID_1_" gradientUnits="userSpaceOnUse" x1="5.1385" y1="2.838" x2="26.8585" y2="24.558">
	<stop  offset="0" style="stop-color:#26A69A"/>
	<stop  offset="0.3233" style="stop-color:#488DA3"/>
	<stop  offset="0.6744" style="stop-color:#8363B2"/>
	<stop  offset="0.9995" style="stop-color:#AB48BC"/>
</linearGradient>
<path class="st0" d="M16,20.8L16,20.8z M4.7,3.2l2,23l9.2,2.6l9.2-2.6l2.1-23C27.3,3.2,4.7,3.2,4.7,3.2z M23,8.5l-0.7,7.8l0,0
	l-0.5,5.4l0,0.5L16,23.7l-5.8-1.6l-0.4-4.4h2.8l0.2,2.2l3.1,0.8l0,0h0l3.1-0.8l0.3-3.7h-6.6l-0.1-0.6l-0.1-1.4l-0.1-0.8h7.1l0.3-2.9
	H9.2L9.1,9.9L9,8.5L9,7.7h14.1L23,8.5L23,8.5z"/>
</svg>
