<?xml version="1.0" encoding="utf-8"?>
<!-- Generator: Adobe Illustrator 20.1.0, SVG Export Plug-In . SVG Version: 6.00 Build 0)  -->
<svg version="1.1" id="Слой_1" xmlns="http://www.w3.org/2000/svg" xmlns:xlink="http://www.w3.org/1999/xlink" x="0px" y="0px"
	 viewBox="0 0 32 32" style="enable-background:new 0 0 32 32;" xml:space="preserve">
<style type="text/css">
	.st0{fill:url(#SVGID_1_);}
</style>
<linearGradient id="SVGID_1_" gradientUnits="userSpaceOnUse" x1="10.0485" y1="10.048" x2="21.9515" y2="21.951">
	<stop  offset="0" style="stop-color:#26A69A"/>
	<stop  offset="0.3233" style="stop-color:#488DA3"/>
	<stop  offset="0.6744" style="stop-color:#8363B2"/>
	<stop  offset="0.9995" style="stop-color:#AB48BC"/>
</linearGradient>
<path class="st0" d="M26.9,15L17,5.1c-0.6-0.6-1.5-0.6-2.1,0l-2,2l2.6,2.6c0.6-0.2,1.3-0.1,1.8,0.4c0.5,0.5,0.6,1.2,0.4,1.8l2.5,2.5
	c0.6-0.2,1.3-0.1,1.8,0.4c0.7,0.7,0.7,1.8,0,2.4s-1.8,0.7-2.4,0c-0.5-0.5-0.6-1.3-0.4-1.9l-2.3-2.3v6.1c0.2,0.1,0.3,0.2,0.5,0.3
	c0.7,0.7,0.7,1.8,0,2.4c-0.7,0.7-1.8,0.7-2.4,0c-0.7-0.7-0.7-1.8,0-2.4c0.2-0.2,0.4-0.3,0.6-0.4V13c-0.2-0.1-0.4-0.2-0.6-0.4
	c-0.5-0.5-0.6-1.3-0.4-1.9l-2.6-2.6l-6.8,6.8c-0.6,0.6-0.6,1.5,0,2.1l9.8,9.8c0.6,0.6,1.5,0.6,2.1,0l9.8-9.8
	C27.4,16.5,27.4,15.6,26.9,15L26.9,15z"/>
</svg>
