<?xml version="1.0" encoding="utf-8"?>
<!-- Generator: Adobe Illustrator 20.1.0, SVG Export Plug-In . SVG Version: 6.00 Build 0)  -->
<svg version="1.1" id="Слой_1" xmlns="http://www.w3.org/2000/svg" xmlns:xlink="http://www.w3.org/1999/xlink" x="0px" y="0px"
	 viewBox="0 0 32 32" style="enable-background:new 0 0 32 32;" xml:space="preserve">
<style type="text/css">
	.st0{fill:url(#SVGID_1_);}
</style>
<linearGradient id="SVGID_1_" gradientUnits="userSpaceOnUse" x1="5.0538" y1="3.0213" x2="26.9428" y2="24.9102">
	<stop  offset="0" style="stop-color:#26A69A"/>
	<stop  offset="0.3233" style="stop-color:#488DA3"/>
	<stop  offset="0.6744" style="stop-color:#8363B2"/>
	<stop  offset="0.9995" style="stop-color:#AB48BC"/>
</linearGradient>
<path class="st0" d="M4.7,3.4l2.1,23.2l9.3,2.6l9.3-2.6l2.1-23.2L4.7,3.4L4.7,3.4z M9,8.9L8.9,8.1H16V11h-4l0.3,2.9H16v2.8H9.6
	L9,8.9L9,8.9z M22.5,14.7l-0.7,7.5l0,0.5L16,24.2l-5.8-1.6l-0.4-4.5h2.8l0.2,2.3l3.2,0.9l3.2-0.9l0.3-3.7H16v-2.8h6.6L22.5,14.7
	L22.5,14.7z M23,8.9l-0.1,1.4L22.8,11H16V8.1h7.1L23,8.9z"/>
</svg>
