<?xml version="1.0" encoding="utf-8"?>
<!-- Generator: Adobe Illustrator 20.1.0, SVG Export Plug-In . SVG Version: 6.00 Build 0)  -->
<svg version="1.1" id="Слой_1" xmlns="http://www.w3.org/2000/svg" xmlns:xlink="http://www.w3.org/1999/xlink" x="0px" y="0px"
	 viewBox="0 0 32 32" style="enable-background:new 0 0 32 32;" xml:space="preserve">
<style type="text/css">
	.st0{fill:url(#SVGID_1_);}
</style>
<linearGradient id="SVGID_1_" gradientUnits="userSpaceOnUse" x1="5.0955" y1="3.2725" x2="26.9025" y2="25.0795">
	<stop  offset="0" style="stop-color:#26A69A"/>
	<stop  offset="0.3233" style="stop-color:#488DA3"/>
	<stop  offset="0.6744" style="stop-color:#8363B2"/>
	<stop  offset="0.9995" style="stop-color:#AB48BC"/>
</linearGradient>
<path class="st0" d="M4.7,3.7l2.1,23.1l9.2,2.6l9.3-2.6l2.1-23.1L4.7,3.7L4.7,3.7z M13.2,9.6l-0.4,4.4l9.7,0l-0.1,0.8l-0.7,7.5
	l0,0.5l-5.8,1.6l-5.8-1.6l-0.4-4.4h2.8l0.2,2.3l3.2,0.9l3.2-0.9l0.3-3.7l-9.7,0l0.1-0.8l0.7-7.4l0.2-2.1H22l0.1,1.6l0.4,4.5h-2.8
	l-0.3-2.9l-2.9-0.2H16v0L13.2,9.6L13.2,9.6z"/>
</svg>
