<?xml version="1.0" encoding="utf-8"?>
<!-- Generator: Adobe Illustrator 20.1.0, SVG Export Plug-In . SVG Version: 6.00 Build 0)  -->
<svg version="1.1" baseProfile="tiny" id="Слой_1"
	 xmlns="http://www.w3.org/2000/svg" xmlns:xlink="http://www.w3.org/1999/xlink" x="0px" y="0px" viewBox="0 0 32 32"
	 xml:space="preserve">
<linearGradient id="SVGID_1_" gradientUnits="userSpaceOnUse" x1="7.2938" y1="7.2405" x2="24.274" y2="24.2207">
	<stop  offset="0" style="stop-color:#26A69A"/>
	<stop  offset="0.3233" style="stop-color:#488DA3"/>
	<stop  offset="0.6744" style="stop-color:#8363B2"/>
	<stop  offset="0.9995" style="stop-color:#AB48BC"/>
</linearGradient>
<path fill="url(#SVGID_1_)" d="M5.3,14.3c0-0.1-0.1-0.2-0.1-0.2L3,12.8c0,0-0.1,0-0.1,0c0,0,0,0,0,0c0,0-0.1,0-0.1,0L0.5,14
	c-0.1,0-0.1,0.1-0.1,0.2l0,3.4c0,0,0,0.1,0.1,0.1c0,0,0.1,0,0.1,0L1.9,17C2,17,2,16.9,2,16.8v-1.6c0-0.1,0-0.2,0.1-0.2l0.6-0.3
	c0,0,0.1,0,0.1,0c0,0,0.1,0,0.1,0L3.5,15c0.1,0,0.1,0.1,0.1,0.2v1.6c0,0.1,0.1,0.2,0.1,0.2l1.3,0.7c0,0,0.1,0,0.1,0
	c0,0,0.1-0.1,0.1-0.1L5.3,14.3L5.3,14.3z M17,9.6c0,0-0.1,0-0.1,0s-0.1,0.1-0.1,0.1v3.4c0,0,0,0.1,0,0.1c0,0-0.1,0-0.1,0l-0.5-0.3
	c-0.1,0-0.2,0-0.3,0l-2.2,1.3c-0.1,0-0.1,0.1-0.1,0.2v2.5c0,0.1,0.1,0.2,0.1,0.2l2.2,1.3c0.1,0,0.2,0,0.3,0l2.2-1.3
	c0.1,0,0.1-0.1,0.1-0.2v-6.3c0-0.1-0.1-0.2-0.1-0.2L17,9.6L17,9.6z M16.8,16C16.8,16.1,16.8,16.1,16.8,16L16,16.5c0,0,0,0-0.1,0
	l-0.8-0.4c0,0,0,0,0-0.1v-0.9c0,0,0,0,0-0.1l0.8-0.4c0,0,0,0,0.1,0l0.8,0.4c0,0,0,0,0,0.1V16z M24.8,15.1c0.1,0,0.1-0.1,0.1-0.2
	v-0.6c0-0.1,0-0.2-0.1-0.2l-2.2-1.3c-0.1,0-0.2,0-0.3,0l-2.2,1.3c-0.1,0-0.1,0.1-0.1,0.2v2.5c0,0.1,0.1,0.2,0.1,0.2l2.2,1.2
	c0.1,0,0.2,0,0.3,0l1.3-0.7c0,0,0.1-0.1,0.1-0.1s0-0.1-0.1-0.1l-2.2-1.3c0,0-0.1-0.1-0.1-0.1v-0.8c0,0,0-0.1,0.1-0.1l0.7-0.4
	c0,0,0.1,0,0.1,0l0.7,0.4c0,0,0.1,0.1,0.1,0.1v0.6c0,0,0,0.1,0.1,0.1s0.1,0,0.1,0L24.8,15.1L24.8,15.1z M9.3,12.8c0.1,0,0.2,0,0.3,0
	l2.2,1.3c0.1,0,0.1,0.1,0.1,0.2v2.5c0,0.1-0.1,0.2-0.1,0.2l-2.2,1.3c-0.1,0-0.2,0-0.3,0L7.1,17C7,17,7,16.9,7,16.8v-2.5
	c0-0.1,0.1-0.2,0.1-0.2C7.1,14.1,9.3,12.8,9.3,12.8z M29.1,18.3c-0.1,0-0.2,0-0.2-0.1l-0.7-0.4c-0.1-0.1-0.1-0.1,0-0.1
	c0.1,0,0.2-0.1,0.3-0.1c0,0,0,0,0.1,0l0.5,0.3c0,0,0,0,0.1,0l2.1-1.2c0,0,0,0,0-0.1v-2.4c0,0,0,0,0-0.1l-2.1-1.2c0,0,0,0-0.1,0
	L27,14.3c0,0,0,0,0,0.1v2.4c0,0,0,0,0,0.1l0.6,0.3c0.3,0.2,0.5,0,0.5-0.2v-2.4c0,0,0-0.1,0.1-0.1h0.3c0,0,0.1,0,0.1,0.1v2.4
	c0,0.4-0.2,0.6-0.6,0.6c-0.1,0-0.2,0-0.5-0.1l-0.5-0.3c-0.1-0.1-0.2-0.2-0.2-0.4v-2.4c0-0.2,0.1-0.3,0.2-0.4l2.1-1.2
	c0.1-0.1,0.3-0.1,0.4,0l2.1,1.2c0.1,0.1,0.2,0.2,0.2,0.4v2.4c0,0.2-0.1,0.3-0.2,0.4l-2.1,1.2C29.2,18.3,29.2,18.3,29.1,18.3
	L29.1,18.3z M29.7,16.7c-0.9,0-1.1-0.4-1.1-0.8c0,0,0-0.1,0.1-0.1H29c0,0,0.1,0,0.1,0.1c0,0.3,0.2,0.4,0.7,0.4
	c0.4,0,0.6-0.1,0.6-0.3c0-0.1-0.1-0.2-0.7-0.3c-0.6-0.1-0.9-0.2-0.9-0.6c0-0.4,0.4-0.7,0.9-0.7c0.7,0,1,0.2,1,0.7c0,0,0,0,0,0
	s0,0,0,0h-0.3c0,0-0.1,0-0.1,0c-0.1-0.3-0.2-0.4-0.6-0.4c-0.5,0-0.5,0.2-0.5,0.3c0,0.2,0.1,0.2,0.7,0.3c0.6,0.1,0.9,0.2,0.9,0.6
	C30.8,16.4,30.4,16.7,29.7,16.7L29.7,16.7z M22.5,15C22.5,15,22.5,15,22.5,15l0.5,0.2c0,0,0,0,0,0v0.5c0,0,0,0,0,0l-0.4,0.2
	c0,0,0,0-0.1,0l-0.4-0.2c0,0,0,0,0,0v-0.5c0,0,0,0,0,0L22.5,15z"/>
</svg>
