<?xml version="1.0" encoding="utf-8"?>
<!-- Generator: Adobe Illustrator 20.1.0, SVG Export Plug-In . SVG Version: 6.00 Build 0)  -->
<svg version="1.1" id="Слой_1" xmlns="http://www.w3.org/2000/svg" xmlns:xlink="http://www.w3.org/1999/xlink" x="0px" y="0px"
	 viewBox="0 0 32 32" style="enable-background:new 0 0 32 32;" xml:space="preserve">
<style type="text/css">
	.st0{fill:url(#SVGID_1_);}
</style>
<linearGradient id="SVGID_1_" gradientUnits="userSpaceOnUse" x1="5.5365" y1="4.943" x2="26.464" y2="25.8705">
	<stop  offset="0" style="stop-color:#26A69A"/>
	<stop  offset="0.3233" style="stop-color:#488DA3"/>
	<stop  offset="0.6744" style="stop-color:#8363B2"/>
	<stop  offset="0.9995" style="stop-color:#AB48BC"/>
</linearGradient>
<path class="st0" d="M0.3,15.4v5.2h8.7v1.8h7v-1.8h15.6V10.2H0.3L0.3,15.4L0.3,15.4z M9.1,15.4v3.5H7.3v-5.2H5.6v5.2H2v-7h7
	C9.1,11.9,9.1,15.4,9.1,15.4z M17.8,15.4l0,3.5l-3.4,0v1.8h-3.6v-8.7h7L17.8,15.4L17.8,15.4z M30,15.4v3.5h-1.8v-5.2h-1.8v5.2
	l-1.8,0v-5.2H23v5.2h-3.5v-7H30L30,15.4L30,15.4z M14.3,15.4v1.7H16v-3.5h-1.6V15.4L14.3,15.4z"/>
</svg>
