<?xml version="1.0" encoding="utf-8"?>
<!-- Generator: Adobe Illustrator 20.1.0, SVG Export Plug-In . SVG Version: 6.00 Build 0)  -->
<svg version="1.1" id="Слой_1" xmlns="http://www.w3.org/2000/svg" xmlns:xlink="http://www.w3.org/1999/xlink" x="0px" y="0px"
	 viewBox="0 0 32 32" style="enable-background:new 0 0 32 32;" xml:space="preserve">
<style type="text/css">
	.st0{fill:url(#SVGID_1_);}
	.st1{fill:url(#SVGID_2_);}
	.st2{fill:url(#SVGID_3_);}
</style>
<linearGradient id="SVGID_1_" gradientUnits="userSpaceOnUse" x1="2.3498" y1="2.3498" x2="29.6502" y2="29.6502">
	<stop  offset="0" style="stop-color:#26A69A"/>
	<stop  offset="0.3233" style="stop-color:#488DA3"/>
	<stop  offset="0.6744" style="stop-color:#8363B2"/>
	<stop  offset="0.9995" style="stop-color:#AB48BC"/>
</linearGradient>
<path class="st0" d="M2.2,2.5v27.1h27.5V2.5C29.8,2.5,2.2,2.5,2.2,2.5z M27.6,27.4H4.4V4.6h23.2V27.4z"/>
<linearGradient id="SVGID_2_" gradientUnits="userSpaceOnUse" x1="7.4783" y1="10.5782" x2="14.1928" y2="17.2927">
	<stop  offset="0" style="stop-color:#26A69A"/>
	<stop  offset="0.3233" style="stop-color:#488DA3"/>
	<stop  offset="0.6744" style="stop-color:#8363B2"/>
	<stop  offset="0.9995" style="stop-color:#AB48BC"/>
</linearGradient>
<path class="st1" d="M15.2,10.1c-0.7-0.6-1.7-0.9-3.2-0.9c-1.4,0-3.2,0-3.2,0v11.1h2.3v-3.6c0,0,0.4,0,0.8,0
	c1.6-0.1,2.5-0.5,3.3-1.4c0.6-0.6,1-1.5,1-2.6S15.9,10.6,15.2,10.1z M12,14.7c-0.4,0-0.5,0-0.8,0v-3.8c0,0,0.5,0,1,0
	c1.2,0,1.8,0.9,1.8,1.9C14,14,13.2,14.7,12,14.7z"/>
<linearGradient id="SVGID_3_" gradientUnits="userSpaceOnUse" x1="17.2326" y1="13.2226" x2="22.917" y2="18.907">
	<stop  offset="0" style="stop-color:#26A69A"/>
	<stop  offset="0.3233" style="stop-color:#488DA3"/>
	<stop  offset="0.6744" style="stop-color:#8363B2"/>
	<stop  offset="0.9995" style="stop-color:#AB48BC"/>
</linearGradient>
<path class="st2" d="M20.9,15.1c-1-0.4-1.3-0.6-1.3-0.9c0-0.4,0.4-0.7,1-0.7c0.7,0,1.8,0.5,2.1,0.7v-1.9c-0.5-0.3-1.3-0.6-2.2-0.6
	c-2,0-3.3,1.2-3.3,2.7c0,1,0.6,1.7,2.3,2.2c1,0.3,1.2,0.8,1.2,1.2s-0.3,0.7-1.1,0.7c-0.8,0-1.9-0.4-2.3-0.7l0,0v1.8
	c0.6,0.3,1.5,0.7,2.3,0.7c2.4,0.1,3.6-1.2,3.6-2.7C23.1,16.4,22.4,15.6,20.9,15.1L20.9,15.1z"/>
</svg>
