<?xml version="1.0" encoding="utf-8"?>
<!-- Generator: Adobe Illustrator 20.1.0, SVG Export Plug-In . SVG Version: 6.00 Build 0)  -->
<svg version="1.1" id="Слой_1" xmlns="http://www.w3.org/2000/svg" xmlns:xlink="http://www.w3.org/1999/xlink" x="0px" y="0px"
	 viewBox="0 0 32 32" style="enable-background:new 0 0 32 32;" xml:space="preserve">
<style type="text/css">
	.st0{fill:url(#SVGID_1_);}
</style>
<linearGradient id="SVGID_1_" gradientUnits="userSpaceOnUse" x1="8.7209" y1="10.1503" x2="21.8683" y2="23.2978">
	<stop  offset="0" style="stop-color:#26A69A"/>
	<stop  offset="0.3233" style="stop-color:#488DA3"/>
	<stop  offset="0.6744" style="stop-color:#8363B2"/>
	<stop  offset="0.9995" style="stop-color:#AB48BC"/>
</linearGradient>
<path class="st0" d="M6.1,13.7c0.3,0,0.5,0,0.7,0.1s0.3,0.2,0.3,0.3c0,0.1,0,0.3-0.1,0.5S6.8,14.9,6.8,15c0,0-0.1,0-0.1,0
	c0,0-0.1-0.1-0.1-0.1c0-0.1,0.1-0.2,0.1-0.4c0-0.2,0-0.3-0.1-0.4c-0.1-0.1-0.2-0.2-0.4-0.2c-0.2,0-0.4,0.1-0.5,0.2
	c-0.1,0.1-0.2,0.3-0.2,0.6c0,0.2,0.1,0.4,0.2,0.6c0.1,0.2,0.2,0.4,0.4,0.6C6,16,6.2,16.2,6.3,16.5c0.1,0.2,0.2,0.5,0.2,0.7
	c0,0.5-0.2,0.8-0.6,1.1S5,18.7,4.4,18.7c-0.4,0-0.8-0.1-1-0.2S3,18.1,3,18c0-0.1,0-0.1,0.1-0.2s0.1-0.2,0.2-0.3
	c0.1-0.1,0.1-0.2,0.2-0.3s0.2-0.2,0.3-0.3c0,0,0.1,0,0.1,0s0,0.1,0,0.1c-0.1,0.1-0.1,0.2-0.2,0.2s-0.1,0.2-0.1,0.3
	c0,0.2,0.1,0.4,0.2,0.6s0.4,0.2,0.6,0.2c0.3,0,0.6-0.1,0.8-0.3c0.2-0.2,0.3-0.4,0.3-0.7c0-0.2-0.1-0.5-0.2-0.7
	c-0.1-0.2-0.2-0.4-0.4-0.6c-0.1-0.2-0.2-0.4-0.4-0.6c-0.1-0.2-0.2-0.4-0.2-0.7c0-0.3,0.1-0.6,0.4-0.8S5.6,13.7,6.1,13.7L6.1,13.7z
	 M11.4,13.8c0.1,0,0.1,0.1,0.1,0.1S11.4,14,11.3,14c-0.2,0-0.4,0-0.7,0s-0.5,0-0.8,0.1c-0.3,0.6-0.5,1.3-0.6,1.9
	C9,16.5,8.9,17,8.9,17.4c0,0.4,0.2,0.7,0.5,0.7s0.7-0.3,1.1-0.9c0,0,0.1,0,0.1,0s0,0.1,0,0.1c-0.2,0.4-0.5,0.7-0.8,0.9
	s-0.7,0.4-1,0.4c-0.3,0-0.6-0.1-0.7-0.2S7.9,18,7.9,17.7c0-0.4,0.1-0.9,0.3-1.6s0.4-1.3,0.7-2c-0.3,0-0.6,0.1-0.9,0.2
	c-0.1,0-0.1,0,0-0.1s0.1-0.1,0.2-0.2C8.2,14,8.3,14,8.4,13.9s0.2-0.1,0.3-0.1c0.1,0,0.1,0,0.2,0s0.1,0,0.2,0
	c0.2-0.4,0.3-0.7,0.5-1.1s0.4-0.7,0.5-1c0.1-0.1,0.2-0.2,0.3-0.2s0.3-0.1,0.4-0.2c0.1,0,0.2-0.1,0.3-0.1s0.1,0,0.1,0.1
	c-0.2,0.3-0.4,0.7-0.6,1.1s-0.4,0.8-0.6,1.3c0.2,0,0.5,0,0.7,0S11.2,13.8,11.4,13.8L11.4,13.8z M23.2,4.1c0.2,0,0.4,0,0.5,0.1
	s0.2,0.2,0.3,0.4s0.1,0.3,0,0.6s-0.1,0.4-0.2,0.6c0,0-0.1,0-0.1,0s-0.1-0.1-0.1-0.1c0-0.2,0-0.3-0.2-0.4S23,5.1,22.7,5.1
	c-0.5,0-1.1,0.2-1.6,0.6s-1.1,0.9-1.6,1.6c-0.5,0.6-1,1.4-1.4,2.2s-0.8,1.7-1.1,2.6c-0.3,0.9-0.6,1.8-0.8,2.7S16,16.5,16,17.2
	c0,0.4,0.1,0.6,0.3,0.6c0.2,0,0.3-0.1,0.5-0.2s0.3-0.3,0.5-0.6c0,0,0.1,0,0.1,0s0,0.1,0,0.1c-0.3,0.4-0.6,0.7-0.9,1s-0.7,0.4-1,0.4
	c-0.2,0-0.4-0.1-0.5-0.2s-0.1-0.3-0.1-0.5c0-0.6,0.1-1.4,0.4-2.3s0.6-1.9,1-2.9c0.4-1,0.9-2,1.5-3s1.2-1.9,1.8-2.7
	c0.6-0.8,1.2-1.5,1.9-2S22.6,4.1,23.2,4.1L23.2,4.1z M6,27.9c-0.2,0-0.4,0-0.5-0.1s-0.2-0.2-0.3-0.4s-0.1-0.3,0-0.6
	c0-0.2,0.1-0.4,0.2-0.6c0,0,0.1,0,0.1,0c0,0,0.1,0.1,0.1,0.1c0,0.2,0,0.3,0.2,0.4c0.1,0.1,0.3,0.2,0.6,0.2c0.5,0,1.1-0.2,1.6-0.6
	s1.1-0.9,1.6-1.6c0.5-0.6,1-1.4,1.4-2.2s0.8-1.7,1.1-2.6c0.3-0.9,0.6-1.8,0.8-2.7s0.3-1.7,0.3-2.4c0-0.4-0.1-0.6-0.3-0.6
	c-0.2,0-0.3,0.1-0.5,0.2s-0.3,0.3-0.5,0.6c0,0-0.1,0-0.1,0s0-0.1,0-0.1c0.3-0.4,0.6-0.7,0.9-1s0.7-0.4,1-0.4c0.2,0,0.4,0.1,0.5,0.2
	s0.1,0.3,0.1,0.5c0,0.6-0.1,1.4-0.4,2.3s-0.6,1.9-1,2.9c-0.4,1-0.9,2-1.5,3s-1.2,1.9-1.8,2.7c-0.6,0.8-1.2,1.5-1.9,2
	S6.5,27.9,6,27.9L6,27.9z M19.1,18.7c-0.5,0-0.8-0.3-0.8-0.9c0-0.2,0-0.4,0.1-0.7s0.1-0.6,0.2-0.8s0.2-0.6,0.3-0.9s0.3-0.6,0.5-0.9
	c-0.1,0.1-0.3,0.2-0.4,0.3s-0.2,0.2-0.3,0.3c0,0-0.1,0-0.1,0s0-0.1,0-0.1c0.2-0.2,0.5-0.5,0.9-0.7s0.8-0.4,1.2-0.6
	c0.1,0,0.1,0,0.1,0s0,0.1,0,0.1c-0.4,0.5-0.7,1.1-1,1.8s-0.4,1.2-0.4,1.8c0,0.4,0.1,0.6,0.3,0.6c0.2,0,0.4-0.1,0.6-0.3
	s0.5-0.5,0.8-0.9c0.3-0.4,0.5-0.8,0.8-1.3s0.5-0.9,0.8-1.4c0-0.1,0.2-0.2,0.3-0.2s0.4-0.1,0.6-0.1s0.3,0.1,0.2,0.2
	c-0.2,0.3-0.3,0.6-0.5,0.9s-0.2,0.6-0.3,0.9s-0.2,0.6-0.2,0.9s-0.1,0.6-0.1,1c0,0.4,0.1,0.6,0.3,0.6s0.5-0.2,0.7-0.6
	c0,0,0.1,0,0.1,0s0.1,0.1,0,0.1c-0.2,0.3-0.5,0.6-0.7,0.8s-0.5,0.3-0.7,0.3c-0.5,0-0.8-0.3-0.8-1c0-0.7,0.1-1.3,0.3-2
	c-0.5,0.9-1,1.6-1.6,2.1S19.4,18.7,19.1,18.7L19.1,18.7z M27.1,13.7c0.3,0,0.5,0,0.7,0.1S28,14,28,14.1c0,0.1,0,0.3-0.1,0.5
	s-0.1,0.3-0.2,0.4c0,0-0.1,0-0.1,0s-0.1-0.1-0.1-0.1c0-0.1,0.1-0.2,0.1-0.4c0-0.2,0-0.3-0.1-0.4s-0.2-0.2-0.4-0.2
	c-0.2,0-0.4,0.1-0.5,0.2s-0.2,0.3-0.2,0.6c0,0.2,0.1,0.4,0.2,0.6s0.2,0.4,0.4,0.6c0.1,0.2,0.3,0.4,0.4,0.6s0.2,0.5,0.2,0.7
	c0,0.5-0.2,0.8-0.6,1.1s-0.9,0.4-1.5,0.4c-0.4,0-0.8-0.1-1-0.2S24,18.1,24,18c0-0.1,0-0.1,0.1-0.2s0.1-0.2,0.2-0.3
	c0.1-0.1,0.1-0.2,0.2-0.3s0.2-0.2,0.3-0.3c0,0,0.1,0,0.1,0s0,0.1,0,0.1c-0.1,0.1-0.1,0.2-0.2,0.2s-0.1,0.2-0.1,0.3
	c0,0.2,0.1,0.4,0.2,0.6s0.4,0.2,0.6,0.2c0.3,0,0.6-0.1,0.8-0.3s0.3-0.4,0.3-0.7c0-0.2-0.1-0.5-0.2-0.7s-0.2-0.4-0.4-0.6
	s-0.2-0.4-0.4-0.6s-0.2-0.4-0.2-0.7c0-0.3,0.1-0.6,0.4-0.8S26.5,13.7,27.1,13.7L27.1,13.7z"/>
</svg>
