<?xml version="1.0" encoding="utf-8"?>
<!-- Generator: Adobe Illustrator 20.1.0, SVG Export Plug-In . SVG Version: 6.00 Build 0)  -->
<svg version="1.1" id="Слой_1" xmlns="http://www.w3.org/2000/svg" xmlns:xlink="http://www.w3.org/1999/xlink" x="0px" y="0px"
	 viewBox="0 0 32 32" style="enable-background:new 0 0 32 32;" xml:space="preserve">
<style type="text/css">
	.st0{fill:url(#SVGID_1_);}
</style>
<linearGradient id="SVGID_1_" gradientUnits="userSpaceOnUse" x1="8.0059" y1="8.013" x2="23.9885" y2="23.9956">
	<stop  offset="0" style="stop-color:#26A69A"/>
	<stop  offset="0.3233" style="stop-color:#488DA3"/>
	<stop  offset="0.6744" style="stop-color:#8363B2"/>
	<stop  offset="0.9995" style="stop-color:#AB48BC"/>
</linearGradient>
<path class="st0" d="M4.7,16c0,4.5,2.6,8.3,6.4,10.2L5.7,11.4C5,12.8,4.7,14.4,4.7,16z M23.6,15.4c0-1.4-0.5-2.4-0.9-3.1
	c-0.6-0.9-1.1-1.7-1.1-2.7c0-1,0.8-2,1.9-2c0,0,0.1,0,0.1,0c-2-1.8-4.7-3-7.6-3c-3.9,0-7.4,2-9.4,5.1c0.3,0,0.5,0,0.7,0
	c1.2,0,3-0.1,3-0.1c0.6,0,0.7,0.9,0.1,0.9c0,0-0.6,0.1-1.3,0.1l4.1,12.2l2.5-7.4l-1.8-4.8c-0.6,0-1.2-0.1-1.2-0.1
	c-0.6,0-0.5-1,0.1-0.9c0,0,1.9,0.1,3,0.1c1.2,0,3-0.1,3-0.1c0.6,0,0.7,0.9,0.1,0.9c0,0-0.6,0.1-1.3,0.1l4.1,12.1l1.1-3.8
	C23.3,17.6,23.6,16.4,23.6,15.4L23.6,15.4z M16.2,17l-3.4,9.9c1,0.3,2.1,0.5,3.2,0.5c1.3,0,2.6-0.2,3.8-0.6c0,0-0.1-0.1-0.1-0.2
	C19.7,26.5,16.2,17,16.2,17z M25.9,10.6c0,0.4,0.1,0.7,0.1,1.2c0,1.1-0.2,2.4-0.9,4l-3.5,10c3.4-2,5.6-5.6,5.6-9.8
	C27.3,14,26.8,12.2,25.9,10.6L25.9,10.6z"/>
</svg>
